<svg xmlns="http://www.w3.org/2000/svg" width="24" height="24" viewBox="0 0 24 24" fill="none" stroke="#00bcd4" stroke-width="2" stroke-linecap="round" stroke-linejoin="round" class="lucide lucide-plane-takeoff h-6 w-6" data-lov-id="src/components/FeatureCard.tsx:14:8" data-lov-name="Icon" data-component-path="src/components/FeatureCard.tsx" data-component-line="14" data-component-file="FeatureCard.tsx" data-component-name="Icon" data-component-content="%7B%22className%22%3A%22h-6%20w-6%22%7D"><path d="M2 22h20"></path><path d="M6.36 17.4 4 17l-2-4 1.1-.55a2 2 0 0 1 1.8 0l.17.1a2 2 0 0 0 1.8 0L8 12 5 6l.9-.45a2 2 0 0 1 2.09.2l4.02 3a2 2 0 0 0 2.1.2l4.19-2.06a2.41 2.41 0 0 1 1.73-.17L21 7a1.4 1.4 0 0 1 .87 1.99l-.38.76c-.23.46-.6.84-1.07 1.08L7.58 17.2a2 2 0 0 1-1.22.18Z"></path></svg>
