<?xml version="1.0" encoding="UTF-8"?>
<svg xmlns="http://www.w3.org/2000/svg" width="100%" height="100%" viewBox="0 0 1252 435" fill="none">
	<g clip-path="url(#clip0_34_2047)">
		<path d="M465.788 271.727C465.788 255.467 465.788 239.081 465.788 222.569C465.788 205.931 465.788 189.483 465.788 173.223C460.999 173.223 456.146 173.223 451.23 173.223C446.314 173.223 441.462 173.223 436.672 173.223C436.672 168.307 436.672 163.328 436.672 158.287C436.672 153.119 436.672 148.077 436.672 143.161C451.671 143.161 466.86 143.161 482.237 143.161C497.614 143.161 512.803 143.161 527.802 143.161C527.802 148.077 527.802 153.119 527.802 158.287C527.802 163.328 527.802 168.307 527.802 173.223C523.139 173.223 518.349 173.223 513.433 173.223C508.517 173.223 503.665 173.223 498.875 173.223C498.875 189.483 498.875 205.931 498.875 222.569C498.875 239.081 498.875 255.467 498.875 271.727C493.455 271.727 487.972 271.727 482.426 271.727C476.88 271.727 471.334 271.727 465.788 271.727ZM590.274 271.727C590.274 270.718 590.274 269.773 590.274 268.891C590.274 267.882 590.274 266.937 590.274 266.055C587.123 268.701 583.531 270.718 579.497 272.105C575.59 273.617 571.367 274.373 566.83 274.373C560.401 274.373 554.351 273.176 548.679 270.781C543.007 268.26 537.965 264.731 533.554 260.193C529.268 255.53 525.865 250.047 523.344 243.745C520.949 237.442 519.752 230.447 519.752 222.758C519.752 214.944 520.949 207.885 523.344 201.583C525.865 195.281 529.268 189.924 533.554 185.512C537.965 180.975 543.007 177.508 548.679 175.113C554.351 172.593 560.338 171.332 566.641 171.332C571.178 171.332 575.464 172.088 579.497 173.601C583.531 174.987 587.123 176.941 590.274 179.462C590.274 178.454 590.274 177.508 590.274 176.626C590.274 175.744 590.274 174.861 590.274 173.979C595.442 173.979 600.673 173.979 605.966 173.979C611.26 173.979 616.428 173.979 621.47 173.979C621.47 190.113 621.47 206.436 621.47 222.947C621.47 239.333 621.47 255.593 621.47 271.727C616.428 271.727 611.26 271.727 605.966 271.727C600.673 271.727 595.442 271.727 590.274 271.727ZM570.989 246.77C577.039 246.77 581.892 244.564 585.547 240.152C589.203 235.741 591.03 229.943 591.03 222.758C591.03 215.574 589.203 209.839 585.547 205.553C581.892 201.142 577.039 198.936 570.989 198.936C564.813 198.936 559.897 201.079 556.242 205.364C552.713 209.65 550.948 215.448 550.948 222.758C550.948 230.069 552.713 235.93 556.242 240.341C559.897 244.627 564.813 246.77 570.989 246.77ZM629.433 222.758C629.433 213.179 631.387 204.797 635.294 197.612C639.201 190.302 644.621 184.441 651.554 180.029C658.486 175.618 666.553 172.971 675.754 172.088C684.955 171.08 694.787 172.151 705.249 175.303C705.249 180.092 705.249 184.945 705.249 189.861C705.249 194.776 705.249 199.629 705.249 204.419C697.938 200.89 690.943 199.251 684.262 199.503C677.582 199.755 672.099 201.835 667.813 205.742C663.528 209.524 661.385 215.196 661.385 222.758C661.385 230.321 663.528 236.056 667.813 239.963C672.099 243.745 677.582 245.761 684.262 246.013C690.943 246.14 697.938 244.501 705.249 241.098C705.249 245.887 705.249 250.74 705.249 255.656C705.249 260.572 705.249 265.424 705.249 270.214C694.787 273.365 684.955 274.437 675.754 273.428C666.553 272.546 658.486 269.899 651.554 265.487C644.621 261.076 639.201 255.278 635.294 248.093C631.387 240.783 629.433 232.338 629.433 222.758ZM718.027 271.727C718.027 248.913 718.027 225.909 718.027 202.717C718.027 179.525 718.027 156.522 718.027 133.708C723.195 133.708 728.426 133.708 733.719 133.708C739.013 133.708 744.181 133.708 749.223 133.708C749.223 141.145 749.223 148.707 749.223 156.396C749.223 163.959 749.223 171.458 749.223 178.895C752.626 176.5 756.407 174.672 760.567 173.412C764.852 172.025 769.453 171.332 774.369 171.332C781.553 171.332 787.855 172.971 793.275 176.248C798.821 179.525 803.107 184.252 806.132 190.428C809.283 196.478 810.859 203.789 810.859 212.36C810.859 222.191 810.859 232.086 810.859 242.043C810.859 252.001 810.859 261.895 810.859 271.727C805.817 271.727 800.649 271.727 795.355 271.727C790.061 271.727 784.83 271.727 779.663 271.727C779.663 262.651 779.663 253.45 779.663 244.123C779.663 234.796 779.663 225.594 779.663 216.519C779.663 211.477 778.465 207.444 776.07 204.419C773.802 201.268 770.146 199.692 765.104 199.692C760.063 199.692 756.155 201.142 753.382 204.041C750.609 206.94 749.223 211.099 749.223 216.519C749.223 225.594 749.223 234.796 749.223 244.123C749.223 253.45 749.223 262.651 749.223 271.727C744.181 271.727 739.013 271.727 733.719 271.727C728.426 271.727 723.195 271.727 718.027 271.727ZM847.09 271.727C847.09 255.467 847.09 239.081 847.09 222.569C847.09 205.931 847.09 189.483 847.09 173.223C842.3 173.223 837.448 173.223 832.532 173.223C827.616 173.223 822.763 173.223 817.974 173.223C817.974 168.307 817.974 163.328 817.974 158.287C817.974 153.119 817.974 148.077 817.974 143.161C832.973 143.161 848.161 143.161 863.539 143.161C878.916 143.161 894.105 143.161 909.104 143.161C909.104 148.077 909.104 153.119 909.104 158.287C909.104 163.328 909.104 168.307 909.104 173.223C904.44 173.223 899.651 173.223 894.735 173.223C889.819 173.223 884.966 173.223 880.177 173.223C880.177 189.483 880.177 205.931 880.177 222.569C880.177 239.081 880.177 255.467 880.177 271.727C874.757 271.727 869.274 271.727 863.728 271.727C858.182 271.727 852.636 271.727 847.09 271.727ZM932.402 162.824C928.747 162.824 925.406 161.942 922.381 160.177C919.482 158.413 917.151 156.081 915.386 153.182C913.621 150.283 912.739 147.069 912.739 143.539C912.739 140.01 913.621 136.859 915.386 134.086C917.151 131.187 919.482 128.855 922.381 127.091C925.406 125.326 928.747 124.444 932.402 124.444C935.931 124.444 939.145 125.326 942.044 127.091C945.069 128.855 947.464 131.187 949.229 134.086C950.993 136.859 951.876 140.01 951.876 143.539C951.876 147.069 950.993 150.283 949.229 153.182C947.464 156.081 945.069 158.413 942.044 160.177C939.145 161.942 935.931 162.824 932.402 162.824ZM916.709 271.727C916.709 255.593 916.709 239.333 916.709 222.947C916.709 206.436 916.709 190.113 916.709 173.979C921.877 173.979 927.108 173.979 932.402 173.979C937.696 173.979 942.864 173.979 947.905 173.979C947.905 190.113 947.905 206.436 947.905 222.947C947.905 239.333 947.905 255.593 947.905 271.727C942.864 271.727 937.696 271.727 932.402 271.727C927.108 271.727 921.877 271.727 916.709 271.727ZM962.115 271.727C962.115 255.593 962.115 239.333 962.115 222.947C962.115 206.436 962.115 190.113 962.115 173.979C967.283 173.979 972.514 173.979 977.807 173.979C983.101 173.979 988.269 173.979 993.311 173.979C993.311 174.861 993.311 175.681 993.311 176.437C993.311 177.193 993.311 178.013 993.311 178.895C996.588 176.5 1000.24 174.672 1004.28 173.412C1008.31 172.025 1012.47 171.332 1016.76 171.332C1021.42 171.332 1025.7 172.151 1029.61 173.79C1033.52 175.303 1036.86 177.571 1039.63 180.596C1043.67 177.697 1048.2 175.429 1053.25 173.79C1058.41 172.151 1063.71 171.332 1069.13 171.332C1076.82 171.332 1083.43 172.908 1088.98 176.059C1094.65 179.21 1099 183.685 1102.02 189.483C1105.18 195.281 1106.75 202.276 1106.75 210.469C1106.75 220.553 1106.75 230.762 1106.75 241.098C1106.75 251.433 1106.75 261.643 1106.75 271.727C1101.71 271.727 1096.54 271.727 1091.25 271.727C1085.95 271.727 1080.72 271.727 1075.55 271.727C1075.55 262.273 1075.55 252.694 1075.55 242.988C1075.55 233.283 1075.55 223.704 1075.55 214.25C1075.55 209.965 1074.55 206.499 1072.53 203.852C1070.64 201.079 1067.55 199.692 1063.27 199.692C1059.11 199.692 1055.83 201.016 1053.43 203.663C1051.17 206.183 1050.03 209.713 1050.03 214.25C1050.03 223.704 1050.03 233.283 1050.03 242.988C1050.03 252.694 1050.03 262.273 1050.03 271.727C1044.99 271.727 1039.82 271.727 1034.53 271.727C1029.23 271.727 1024 271.727 1018.83 271.727C1018.83 262.273 1018.83 252.694 1018.83 242.988C1018.83 233.283 1018.83 223.704 1018.83 214.25C1018.83 209.965 1017.83 206.499 1015.81 203.852C1013.92 201.079 1010.83 199.692 1006.55 199.692C1002.39 199.692 999.109 201.016 996.714 203.663C994.445 206.183 993.311 209.713 993.311 214.25C993.311 223.704 993.311 233.283 993.311 242.988C993.311 252.694 993.311 262.273 993.311 271.727C988.269 271.727 983.101 271.727 977.807 271.727C972.514 271.727 967.283 271.727 962.115 271.727ZM1202.64 267.189C1193.95 270.844 1185.31 273.113 1176.74 273.995C1168.17 274.878 1160.04 274.373 1152.35 272.483C1144.79 270.718 1138.05 267.63 1132.12 263.219C1126.2 258.807 1121.53 253.198 1118.13 246.392C1114.85 239.585 1113.21 231.707 1113.21 222.758C1113.21 215.322 1114.41 208.515 1116.81 202.339C1119.33 196.037 1122.86 190.554 1127.39 185.89C1131.93 181.101 1137.29 177.445 1143.47 174.924C1149.64 172.277 1156.38 170.954 1163.7 170.954C1170.25 170.954 1176.17 172.025 1181.47 174.168C1186.76 176.311 1191.36 179.336 1195.27 183.243C1199.18 187.025 1202.33 191.562 1204.72 196.856C1207.12 202.15 1208.63 207.948 1209.26 214.25C1209.89 220.553 1209.51 227.233 1208.13 234.291C1197.79 234.291 1187.39 234.291 1176.93 234.291C1166.47 234.291 1156.07 234.291 1145.73 234.291C1148.13 239.081 1152.1 242.484 1157.65 244.501C1163.32 246.518 1170 247.148 1177.69 246.392C1185.5 245.635 1193.82 243.619 1202.64 240.341C1202.64 244.753 1202.64 249.228 1202.64 253.765C1202.64 258.303 1202.64 262.777 1202.64 267.189ZM1162.94 198.936C1159.28 198.936 1155.88 199.944 1152.73 201.961C1149.7 203.978 1147.37 207.066 1145.73 211.225C1151.41 211.225 1157.08 211.225 1162.75 211.225C1168.55 211.225 1174.28 211.225 1179.96 211.225C1178.44 206.94 1176.17 203.852 1173.15 201.961C1170.25 199.944 1166.85 198.936 1162.94 198.936Z" fill="black"/>
		<path d="M470.383 329.727V303.203H479.617C481.871 303.203 483.835 303.697 485.507 304.685C487.179 305.647 488.471 307.117 489.383 309.093C490.295 311.043 490.751 313.501 490.751 316.465C490.751 319.429 490.295 321.899 489.383 323.875C488.471 325.825 487.179 327.295 485.507 328.283C483.835 329.245 481.871 329.727 479.617 329.727H470.383ZM474.411 326.155H479.617C480.985 326.155 482.175 325.863 483.189 325.281C484.227 324.698 485.025 323.849 485.583 322.735C486.165 321.595 486.457 320.214 486.457 318.593V314.337C486.457 312.69 486.165 311.309 485.583 310.195C485.025 309.08 484.227 308.231 483.189 307.649C482.175 307.066 480.985 306.775 479.617 306.775H474.411V326.155ZM502.633 329.727V326.421H506.243V306.509H502.633V303.203H513.919V306.509H510.309V326.421H513.919V329.727H502.633ZM536.762 330.183C534.659 330.183 532.772 329.663 531.1 328.625C529.453 327.561 528.148 326.015 527.186 323.989C526.248 321.962 525.78 319.467 525.78 316.503C525.78 313.539 526.261 311.043 527.224 309.017C528.186 306.965 529.529 305.407 531.252 304.343C533 303.279 535.026 302.747 537.332 302.747C539.688 302.747 541.689 303.279 543.336 304.343C544.982 305.407 546.262 306.851 547.174 308.675L543.83 310.651C543.298 309.359 542.487 308.32 541.398 307.535C540.308 306.749 538.953 306.357 537.332 306.357C535.888 306.357 534.621 306.673 533.532 307.307C532.442 307.94 531.594 308.852 530.986 310.043C530.403 311.233 530.112 312.652 530.112 314.299V318.593C530.112 320.239 530.403 321.658 530.986 322.849C531.594 324.039 532.455 324.964 533.57 325.623C534.684 326.256 536.002 326.573 537.522 326.573C538.662 326.573 539.7 326.383 540.638 326.003C541.575 325.597 542.322 325.015 542.88 324.255C543.462 323.495 543.754 322.532 543.754 321.367V319.201H538.206V315.705H547.668V329.727H544.096V325.737H543.944C543.665 327.003 542.905 328.067 541.664 328.929C540.422 329.765 538.788 330.183 536.762 330.183ZM560.174 329.727V326.421H563.784V306.509H560.174V303.203H571.46V306.509H567.85V326.421H571.46V329.727H560.174ZM589.939 329.727V306.775H581.921V303.203H601.985V306.775H593.967V329.727H589.939ZM608.853 329.727L617.935 303.203H623.027L632.109 329.727H627.853L625.459 322.393H615.351L612.957 329.727H608.853ZM616.339 318.897H624.471L620.481 306.927H620.291L616.339 318.897ZM643.899 329.727V303.203H647.927V326.155H658.833V329.727H643.899ZM684.979 329.727L694.061 303.203H699.153L708.235 329.727H703.979L701.585 322.393H691.477L689.083 329.727H684.979ZM692.465 318.897H700.597L696.607 306.927H696.417L692.465 318.897ZM718.847 329.727V326.421H722.457V306.509H718.847V303.203H730.133V306.509H726.523V326.421H730.133V329.727H718.847ZM743.248 329.727V303.203H754.458C756.054 303.203 757.409 303.519 758.524 304.153C759.664 304.761 760.538 305.647 761.146 306.813C761.779 307.978 762.096 309.384 762.096 311.031C762.096 312.905 761.652 314.501 760.766 315.819C759.904 317.111 758.625 317.985 756.928 318.441L762.704 329.727H758.182L752.786 318.897H747.276V329.727H743.248ZM747.276 315.439H754.23C754.99 315.439 755.636 315.312 756.168 315.059C756.7 314.78 757.105 314.387 757.384 313.881C757.662 313.374 757.802 312.753 757.802 312.019V310.157C757.802 309.422 757.662 308.801 757.384 308.295C757.105 307.788 756.7 307.408 756.168 307.155C755.636 306.876 754.99 306.737 754.23 306.737H747.276V315.439ZM785.033 330.183C782.753 330.183 780.777 329.676 779.105 328.663C777.458 327.624 776.191 326.104 775.305 324.103C774.418 322.101 773.975 319.606 773.975 316.617C773.975 313.653 774.418 311.145 775.305 309.093C776.191 307.015 777.458 305.445 779.105 304.381C780.777 303.291 782.753 302.747 785.033 302.747C787.313 302.747 789.225 303.253 790.771 304.267C792.316 305.28 793.532 306.762 794.419 308.713L791.037 310.613C790.555 309.321 789.821 308.295 788.833 307.535C787.87 306.749 786.603 306.357 785.033 306.357C782.93 306.357 781.283 307.091 780.093 308.561C778.902 310.03 778.307 312.019 778.307 314.527V318.593C778.307 321.101 778.902 323.064 780.093 324.483C781.283 325.876 782.93 326.573 785.033 326.573C786.629 326.573 787.946 326.155 788.985 325.319C790.023 324.483 790.796 323.393 791.303 322.051L794.571 324.027C793.684 325.927 792.443 327.434 790.847 328.549C789.251 329.638 787.313 330.183 785.033 330.183ZM806.801 329.727V303.203H818.011C819.607 303.203 820.963 303.519 822.077 304.153C823.217 304.761 824.091 305.647 824.699 306.813C825.333 307.978 825.649 309.384 825.649 311.031C825.649 312.905 825.206 314.501 824.319 315.819C823.458 317.111 822.179 317.985 820.481 318.441L826.257 329.727H821.735L816.339 318.897H810.829V329.727H806.801ZM810.829 315.439H817.783C818.543 315.439 819.189 315.312 819.721 315.059C820.253 314.78 820.659 314.387 820.937 313.881C821.216 313.374 821.355 312.753 821.355 312.019V310.157C821.355 309.422 821.216 308.801 820.937 308.295C820.659 307.788 820.253 307.408 819.721 307.155C819.189 306.876 818.543 306.737 817.783 306.737H810.829V315.439ZM836.645 329.727L845.727 303.203H850.819L859.901 329.727H855.645L853.251 322.393H843.143L840.749 329.727H836.645ZM844.131 318.897H852.263L848.273 306.927H848.083L844.131 318.897ZM871.691 329.727V303.203H888.069V306.775H875.719V314.527H886.777V318.099H875.719V329.727H871.691ZM906.474 329.727V306.775H898.456V303.203H918.52V306.775H910.502V329.727H906.474ZM946.963 329.727V303.203H950.991V326.155H961.897V329.727H946.963ZM982.856 330.183C980.551 330.183 978.537 329.663 976.814 328.625C975.117 327.561 973.799 326.015 972.862 323.989C971.925 321.937 971.456 319.429 971.456 316.465C971.456 313.475 971.925 310.967 972.862 308.941C973.799 306.914 975.117 305.381 976.814 304.343C978.537 303.279 980.551 302.747 982.856 302.747C985.161 302.747 987.163 303.279 988.86 304.343C990.583 305.381 991.913 306.914 992.85 308.941C993.787 310.967 994.256 313.475 994.256 316.465C994.256 319.429 993.787 321.937 992.85 323.989C991.913 326.015 990.583 327.561 988.86 328.625C987.163 329.663 985.161 330.183 982.856 330.183ZM982.856 326.573C984.275 326.573 985.503 326.243 986.542 325.585C987.606 324.926 988.429 324.001 989.012 322.811C989.62 321.62 989.924 320.214 989.924 318.593V314.337C989.924 312.69 989.62 311.271 989.012 310.081C988.429 308.89 987.606 307.978 986.542 307.345C985.503 306.686 984.275 306.357 982.856 306.357C981.463 306.357 980.234 306.686 979.17 307.345C978.106 307.978 977.27 308.89 976.662 310.081C976.079 311.271 975.788 312.69 975.788 314.337V318.593C975.788 320.214 976.079 321.62 976.662 322.811C977.27 324.001 978.106 324.926 979.17 325.585C980.234 326.243 981.463 326.573 982.856 326.573ZM1017.02 330.183C1014.91 330.183 1013.03 329.663 1011.35 328.625C1009.71 327.561 1008.4 326.015 1007.44 323.989C1006.5 321.962 1006.03 319.467 1006.03 316.503C1006.03 313.539 1006.52 311.043 1007.48 309.017C1008.44 306.965 1009.78 305.407 1011.51 304.343C1013.25 303.279 1015.28 302.747 1017.59 302.747C1019.94 302.747 1021.94 303.279 1023.59 304.343C1025.24 305.407 1026.52 306.851 1027.43 308.675L1024.08 310.651C1023.55 309.359 1022.74 308.32 1021.65 307.535C1020.56 306.749 1019.21 306.357 1017.59 306.357C1016.14 306.357 1014.88 306.673 1013.79 307.307C1012.7 307.94 1011.85 308.852 1011.24 310.043C1010.66 311.233 1010.37 312.652 1010.37 314.299V318.593C1010.37 320.239 1010.66 321.658 1011.24 322.849C1011.85 324.039 1012.71 324.964 1013.82 325.623C1014.94 326.256 1016.26 326.573 1017.78 326.573C1018.92 326.573 1019.96 326.383 1020.89 326.003C1021.83 325.597 1022.58 325.015 1023.13 324.255C1023.72 323.495 1024.01 322.532 1024.01 321.367V319.201H1018.46V315.705H1027.92V329.727H1024.35V325.737H1024.2C1023.92 327.003 1023.16 328.067 1021.92 328.929C1020.68 329.765 1019.04 330.183 1017.02 330.183ZM1041.61 329.727V303.203H1053.16C1055.34 303.203 1057.05 303.823 1058.29 305.065C1059.56 306.306 1060.19 307.965 1060.19 310.043C1060.19 311.36 1059.96 312.424 1059.51 313.235C1059.05 314.02 1058.47 314.603 1057.76 314.983C1057.07 315.363 1056.39 315.591 1055.71 315.667V315.895C1056.24 315.92 1056.81 316.059 1057.42 316.313C1058.05 316.541 1058.64 316.895 1059.2 317.377C1059.78 317.858 1060.25 318.491 1060.61 319.277C1060.96 320.037 1061.14 320.974 1061.14 322.089C1061.14 323.507 1060.84 324.799 1060.23 325.965C1059.64 327.13 1058.83 328.055 1057.8 328.739C1056.78 329.397 1055.62 329.727 1054.3 329.727H1041.61ZM1045.64 326.231H1053.12C1053.88 326.231 1054.54 326.091 1055.1 325.813C1055.68 325.534 1056.12 325.141 1056.43 324.635C1056.73 324.103 1056.88 323.457 1056.88 322.697V321.405C1056.88 320.645 1056.73 320.011 1056.43 319.505C1056.12 318.973 1055.68 318.567 1055.1 318.289C1054.54 318.01 1053.88 317.871 1053.12 317.871H1045.64V326.231ZM1045.64 314.489H1052.44C1053.17 314.489 1053.79 314.362 1054.3 314.109C1054.83 313.83 1055.24 313.45 1055.52 312.969C1055.79 312.487 1055.93 311.905 1055.93 311.221V309.967C1055.93 309.283 1055.79 308.7 1055.52 308.219C1055.24 307.712 1054.83 307.332 1054.3 307.079C1053.79 306.825 1053.17 306.699 1052.44 306.699H1045.64V314.489ZM1084.36 330.183C1082.06 330.183 1080.05 329.663 1078.32 328.625C1076.63 327.561 1075.31 326.015 1074.37 323.989C1073.43 321.937 1072.96 319.429 1072.96 316.465C1072.96 313.475 1073.43 310.967 1074.37 308.941C1075.31 306.914 1076.63 305.381 1078.32 304.343C1080.05 303.279 1082.06 302.747 1084.36 302.747C1086.67 302.747 1088.67 303.279 1090.37 304.343C1092.09 305.381 1093.42 306.914 1094.36 308.941C1095.3 310.967 1095.76 313.475 1095.76 316.465C1095.76 319.429 1095.3 321.937 1094.36 323.989C1093.42 326.015 1092.09 327.561 1090.37 328.625C1088.67 329.663 1086.67 330.183 1084.36 330.183ZM1084.36 326.573C1085.78 326.573 1087.01 326.243 1088.05 325.585C1089.11 324.926 1089.94 324.001 1090.52 322.811C1091.13 321.62 1091.43 320.214 1091.43 318.593V314.337C1091.43 312.69 1091.13 311.271 1090.52 310.081C1089.94 308.89 1089.11 307.978 1088.05 307.345C1087.01 306.686 1085.78 306.357 1084.36 306.357C1082.97 306.357 1081.74 306.686 1080.68 307.345C1079.61 307.978 1078.78 308.89 1078.17 310.081C1077.59 311.271 1077.3 312.69 1077.3 314.337V318.593C1077.3 320.214 1077.59 321.62 1078.17 322.811C1078.78 324.001 1079.61 324.926 1080.68 325.585C1081.74 326.243 1082.97 326.573 1084.36 326.573ZM1118.94 330.183C1116.64 330.183 1114.62 329.663 1112.9 328.625C1111.2 327.561 1109.89 326.015 1108.95 323.989C1108.01 321.937 1107.54 319.429 1107.54 316.465C1107.54 313.475 1108.01 310.967 1108.95 308.941C1109.89 306.914 1111.2 305.381 1112.9 304.343C1114.62 303.279 1116.64 302.747 1118.94 302.747C1121.25 302.747 1123.25 303.279 1124.95 304.343C1126.67 305.381 1128 306.914 1128.94 308.941C1129.87 310.967 1130.34 313.475 1130.34 316.465C1130.34 319.429 1129.87 321.937 1128.94 323.989C1128 326.015 1126.67 327.561 1124.95 328.625C1123.25 329.663 1121.25 330.183 1118.94 330.183ZM1118.94 326.573C1120.36 326.573 1121.59 326.243 1122.63 325.585C1123.69 324.926 1124.52 324.001 1125.1 322.811C1125.71 321.62 1126.01 320.214 1126.01 318.593V314.337C1126.01 312.69 1125.71 311.271 1125.1 310.081C1124.52 308.89 1123.69 307.978 1122.63 307.345C1121.59 306.686 1120.36 306.357 1118.94 306.357C1117.55 306.357 1116.32 306.686 1115.26 307.345C1114.19 307.978 1113.36 308.89 1112.75 310.081C1112.17 311.271 1111.88 312.69 1111.88 314.337V318.593C1111.88 320.214 1112.17 321.62 1112.75 322.811C1113.36 324.001 1114.19 324.926 1115.26 325.585C1116.32 326.243 1117.55 326.573 1118.94 326.573ZM1143.38 329.727V303.203H1147.4V316.807H1147.56L1151.36 312.019L1158.69 303.203H1163.48L1153.9 314.413L1164.2 329.727H1159.3L1151.09 317.187L1147.4 321.367V329.727H1143.38ZM1183.44 330.183C1181.24 330.183 1179.35 329.777 1177.78 328.967C1176.24 328.131 1174.92 327.029 1173.83 325.661L1176.64 323.077C1177.58 324.242 1178.61 325.129 1179.72 325.737C1180.86 326.319 1182.17 326.611 1183.63 326.611C1185.38 326.611 1186.7 326.218 1187.59 325.433C1188.47 324.622 1188.92 323.545 1188.92 322.203C1188.92 321.493 1188.78 320.885 1188.5 320.379C1188.25 319.847 1187.8 319.403 1187.17 319.049C1186.54 318.694 1185.69 318.415 1184.62 318.213L1182.3 317.757C1180.63 317.427 1179.23 316.946 1178.09 316.313C1176.95 315.679 1176.09 314.869 1175.5 313.881C1174.92 312.867 1174.63 311.664 1174.63 310.271C1174.63 308.7 1175 307.357 1175.73 306.243C1176.49 305.103 1177.55 304.241 1178.92 303.659C1180.32 303.051 1181.94 302.747 1183.79 302.747C1185.79 302.747 1187.51 303.101 1188.95 303.811C1190.42 304.52 1191.68 305.546 1192.72 306.889L1189.83 309.321C1189.14 308.409 1188.3 307.687 1187.28 307.155C1186.29 306.597 1185.05 306.319 1183.56 306.319C1182.01 306.319 1180.81 306.648 1179.95 307.307C1179.09 307.94 1178.66 308.865 1178.66 310.081C1178.66 310.841 1178.81 311.474 1179.11 311.981C1179.44 312.462 1179.92 312.867 1180.56 313.197C1181.22 313.501 1182.04 313.754 1183.03 313.957L1185.34 314.413C1187.09 314.767 1188.52 315.274 1189.64 315.933C1190.78 316.591 1191.61 317.427 1192.15 318.441C1192.68 319.429 1192.94 320.607 1192.94 321.975C1192.94 323.621 1192.56 325.065 1191.8 326.307C1191.07 327.523 1189.99 328.473 1188.57 329.157C1187.16 329.841 1185.45 330.183 1183.44 330.183Z" fill="black"/>
		<g clip-path="url(#clip1_34_2047)">
			<path d="M191.001 386.637L195.647 386.613C196.716 386.607 197.579 385.967 197.575 385.183L197.503 371.556C197.499 370.773 196.629 370.142 195.56 370.147L190.915 370.172C189.846 370.177 188.983 370.817 188.987 371.601L189.058 385.228C189.063 386.012 189.932 386.643 191.001 386.637Z" fill="#0B58F4"/>
			<path d="M169.431 384.489L172.178 384.959C172.811 385.067 173.386 384.787 173.463 384.334L174.809 376.46C174.887 376.007 174.437 375.552 173.805 375.444L171.057 374.975C170.425 374.867 169.85 375.146 169.772 375.599L168.426 383.473C168.349 383.926 168.799 384.381 169.431 384.489Z" fill="#0B58F4"/>
			<path d="M145.979 378.189L148.603 379.128C149.207 379.344 149.822 379.169 149.977 378.736L152.669 371.215C152.824 370.783 152.46 370.257 151.856 370.041L149.232 369.101C148.628 368.885 148.013 369.06 147.858 369.493L145.166 377.014C145.011 377.446 145.375 377.972 145.979 378.189Z" fill="#0B58F4"/>
			<path d="M104.083 353.955L106.228 355.736C106.722 356.145 107.36 356.191 107.653 355.837L112.755 349.691C113.049 349.338 112.887 348.719 112.393 348.309L110.249 346.529C109.755 346.119 109.117 346.073 108.824 346.427L103.721 352.573C103.428 352.927 103.59 353.546 104.083 353.955Z" fill="#0B58F4"/>
			<path d="M86.925 336.767L88.7278 338.893C89.1427 339.382 89.7631 339.537 90.1136 339.24L96.2058 334.073C96.5562 333.776 96.504 333.139 96.0892 332.649L94.2863 330.524C93.8714 330.034 93.251 329.879 92.9005 330.176L86.8084 335.343C86.4579 335.64 86.5101 336.278 86.925 336.767Z" fill="#0B58F4"/>
			<path d="M62.7564 294.837L63.7235 297.451C63.9461 298.052 64.4759 298.411 64.9069 298.251L72.3988 295.48C72.8298 295.32 72.9988 294.703 72.7762 294.102L71.8091 291.488C71.5866 290.886 71.0568 290.528 70.6258 290.687L63.1339 293.459C62.7029 293.618 62.5339 294.235 62.7564 294.837Z" fill="#0B58F4"/>
			<path d="M56.4858 271.377L56.9842 274.119C57.0989 274.75 57.5584 275.195 58.0106 275.113L65.8699 273.684C66.3221 273.602 66.5956 273.024 66.4809 272.393L65.9825 269.651C65.8678 269.02 65.4083 268.575 64.9561 268.657L57.0968 270.085C56.6446 270.167 56.3711 270.746 56.4858 271.377Z" fill="#0B58F4"/>
			<path d="M54.3687 244.548L54.3931 249.193C54.3988 250.262 55.0388 251.126 55.8228 251.121L69.4494 251.05C70.2333 251.046 70.8642 250.176 70.8586 249.107L70.8342 244.461C70.8285 243.392 70.1885 242.529 69.4045 242.533L55.7779 242.605C54.994 242.609 54.3631 243.479 54.3687 244.548Z" fill="#0B58F4"/>
			<path d="M56.5226 222.983L56.0531 225.73C55.945 226.362 56.2246 226.938 56.6776 227.015L64.5516 228.361C65.0046 228.438 65.4594 227.989 65.5674 227.356L66.037 224.609C66.145 223.977 65.8654 223.401 65.4124 223.324L57.5385 221.978C57.0855 221.901 56.6307 222.351 56.5226 222.983Z" fill="#0B58F4"/>
			<path d="M62.8188 199.526L61.8793 202.15C61.6631 202.754 61.8385 203.369 62.2712 203.524L69.7918 206.216C70.2245 206.371 70.7505 206.007 70.9667 205.403L71.9062 202.779C72.1224 202.175 71.947 201.56 71.5143 201.405L63.9936 198.713C63.561 198.558 63.035 198.922 62.8188 199.526Z" fill="#0B58F4"/>
			<path d="M74.4099 175.232L72.1084 179.267C71.5788 180.195 71.7014 181.263 72.3824 181.651L84.2193 188.403C84.9002 188.791 85.8816 188.353 86.4113 187.425L88.7128 183.389C89.2424 182.461 89.1197 181.393 88.4388 181.005L76.6019 174.253C75.921 173.865 74.9396 174.303 74.4099 175.232Z" fill="#0B58F4"/>
			<path d="M87.0476 157.629L85.2672 159.773C84.8575 160.267 84.812 160.905 85.1656 161.198L91.3118 166.301C91.6654 166.594 92.2842 166.432 92.6939 165.939L94.4742 163.794C94.8839 163.301 94.9294 162.663 94.5758 162.369L88.4296 157.267C88.0761 156.973 87.4573 157.135 87.0476 157.629Z" fill="#0B58F4"/>
			<path d="M104.236 140.467L102.11 142.27C101.621 142.685 101.466 143.306 101.763 143.656L106.93 149.748C107.227 150.099 107.864 150.047 108.354 149.632L110.479 147.829C110.968 147.414 111.124 146.793 110.827 146.443L105.66 140.351C105.363 140 104.725 140.053 104.236 140.467Z" fill="#0B58F4"/>
			<path d="M146.16 116.302L143.546 117.269C142.944 117.491 142.586 118.021 142.745 118.452L145.517 125.944C145.676 126.375 146.293 126.544 146.895 126.322L149.509 125.355C150.11 125.132 150.469 124.602 150.309 124.171L147.538 116.679C147.378 116.248 146.761 116.079 146.16 116.302Z" fill="#0B58F4"/>
			<path d="M169.629 110.022L166.887 110.521C166.256 110.636 165.814 111.112 165.9 111.585L167.395 119.811C167.481 120.284 168.062 120.575 168.693 120.46L171.436 119.962C172.067 119.847 172.509 119.37 172.423 118.897L170.928 110.672C170.842 110.198 170.26 109.908 169.629 110.022Z" fill="#0B58F4"/>
			<path d="M217.592 109.988L215.15 109.57C214.588 109.474 214.07 109.764 213.992 110.217L212.646 118.091C212.569 118.544 212.962 118.989 213.524 119.085L215.966 119.502C216.528 119.598 217.046 119.309 217.124 118.856L218.469 110.982C218.547 110.529 218.154 110.084 217.592 109.988Z" fill="#0B58F4"/>
			<path d="M241.072 116.213L238.739 115.378C238.203 115.186 237.642 115.381 237.487 115.814L234.795 123.334C234.64 123.767 234.949 124.274 235.486 124.466L237.819 125.301C238.355 125.493 238.916 125.298 239.071 124.865L241.764 117.345C241.918 116.912 241.609 116.406 241.072 116.213Z" fill="#0B58F4"/>
			<path d="M265.778 127.952L261.743 125.65C260.814 125.121 259.747 125.243 259.358 125.924L252.607 137.761C252.219 138.442 252.657 139.424 253.585 139.953L257.62 142.255C258.549 142.784 259.617 142.662 260.005 141.981L266.756 130.144C267.145 129.463 266.707 128.482 265.778 127.952Z" fill="#0B58F4"/>
			<path d="M283.038 140.305L281.132 138.723C280.694 138.359 280.1 138.35 279.806 138.704L274.704 144.85C274.41 145.203 274.528 145.785 274.967 146.15L276.873 147.732C277.312 148.096 277.905 148.105 278.199 147.751L283.301 141.605C283.595 141.251 283.477 140.67 283.038 140.305Z" fill="#0B58F4"/>
			<path d="M300.254 157.443L298.652 155.554C298.283 155.119 297.7 155.008 297.349 155.305L291.257 160.472C290.907 160.769 290.921 161.362 291.29 161.797L292.893 163.687C293.262 164.121 293.845 164.233 294.195 163.936L300.287 158.769C300.638 158.472 300.623 157.878 300.254 157.443Z" fill="#0B58F4"/>
			<path d="M315.795 179.954L313.451 175.944C312.912 175.021 311.926 174.593 311.249 174.989L299.484 181.864C298.807 182.26 298.696 183.328 299.235 184.251L301.579 188.262C302.118 189.185 303.104 189.613 303.781 189.217L315.546 182.342C316.223 181.946 316.334 180.877 315.795 179.954Z" fill="#0B58F4"/>
			<path d="M324.564 199.295L323.704 196.971C323.507 196.436 322.997 196.132 322.566 196.292L315.074 199.063C314.643 199.223 314.454 199.785 314.652 200.32L315.511 202.644C315.709 203.179 316.219 203.483 316.65 203.323L324.142 200.552C324.573 200.392 324.762 199.83 324.564 199.295Z" fill="#0B58F4"/>
			<path d="M330.906 222.742L330.463 220.305C330.361 219.744 329.912 219.356 329.46 219.438L321.601 220.866C321.149 220.949 320.865 221.47 320.967 222.031L321.41 224.469C321.512 225.029 321.961 225.418 322.413 225.335L330.272 223.907C330.725 223.825 331.008 223.303 330.906 222.742Z" fill="#0B58F4"/>
			<path d="M331.024 271.138L331.441 268.696C331.537 268.134 331.248 267.616 330.795 267.539L322.921 266.193C322.468 266.115 322.023 266.508 321.927 267.07L321.51 269.512C321.414 270.074 321.703 270.593 322.156 270.67L330.03 272.016C330.483 272.093 330.928 271.7 331.024 271.138Z" fill="#0B58F4"/>
			<path d="M324.795 294.618L325.63 292.285C325.822 291.749 325.627 291.188 325.195 291.033L317.674 288.34C317.241 288.186 316.735 288.495 316.543 289.032L315.707 291.364C315.515 291.901 315.71 292.462 316.143 292.617L323.664 295.309C324.096 295.464 324.603 295.155 324.795 294.618Z" fill="#0B58F4"/>
			<path d="M300.7 336.586L302.283 334.68C302.647 334.241 302.656 333.648 302.302 333.354L296.156 328.252C295.802 327.958 295.221 328.076 294.856 328.515L293.274 330.421C292.91 330.86 292.901 331.453 293.255 331.747L299.401 336.849C299.754 337.143 300.336 337.025 300.7 336.586Z" fill="#0B58F4"/>
			<path d="M283.56 353.804L285.45 352.202C285.885 351.833 285.996 351.25 285.699 350.9L280.532 344.807C280.235 344.457 279.642 344.472 279.207 344.841L277.317 346.443C276.882 346.812 276.771 347.395 277.068 347.745L282.235 353.838C282.532 354.188 283.126 354.173 283.56 353.804Z" fill="#0B58F4"/>
			<path d="M261.047 369.332L265.058 366.988C265.981 366.449 266.409 365.463 266.013 364.786L259.138 353.021C258.742 352.344 257.673 352.233 256.751 352.772L252.74 355.116C251.817 355.655 251.389 356.641 251.785 357.318L258.66 369.083C259.056 369.76 260.124 369.872 261.047 369.332Z" fill="#0B58F4"/>
			<path d="M241.712 378.102L244.036 377.242C244.57 377.044 244.875 376.534 244.715 376.103L241.944 368.611C241.784 368.18 241.221 367.991 240.687 368.189L238.363 369.049C237.828 369.247 237.524 369.756 237.684 370.187L240.455 377.679C240.615 378.11 241.177 378.299 241.712 378.102Z" fill="#0B58F4"/>
			<path d="M218.259 384.449L220.696 384.006C221.257 383.904 221.645 383.455 221.563 383.003L220.135 375.143C220.052 374.691 219.531 374.407 218.97 374.509L216.532 374.952C215.972 375.054 215.583 375.503 215.666 375.956L217.094 383.815C217.176 384.267 217.698 384.551 218.259 384.449Z" fill="#0B58F4"/>
		</g>
		<path d="M137.049 36.0324C139.978 35.2477 143.024 35.3927 145.855 36.4502C148.693 37.5057 151.092 39.402 152.794 41.9207C166.829 62.681 178.3 85.0988 186.927 108.615C186.933 108.638 186.939 108.661 186.951 108.674C186.969 108.743 186.996 108.811 187.02 108.87C187.578 110.372 188.116 111.888 188.644 113.398C191.738 122.274 194.415 131.286 196.677 140.401C199.743 152.709 203.107 179.96 204.891 196.171C210.427 197.448 215.695 199.633 220.487 202.599L279.376 161.691L238.195 220.969C240.298 224.682 241.971 228.716 243.126 233.026C243.302 233.685 243.464 234.345 243.614 235.005C258.796 237.014 287.791 240.852 300.994 244.55C310.041 247.074 318.972 250.011 327.755 253.359C329.25 253.93 330.75 254.511 332.235 255.112C332.294 255.138 332.36 255.167 332.428 255.187C332.441 255.199 332.464 255.206 332.486 255.213C355.744 264.514 377.821 276.628 398.168 291.256C403.187 294.861 405.368 301.255 403.6 307.163C402.732 310.068 401.01 312.586 398.624 314.441C396.236 316.303 393.362 317.349 390.325 317.476C365.288 318.529 340.185 316.529 315.64 311.532C315.617 311.525 315.594 311.519 315.577 311.522C315.509 311.501 315.438 311.488 315.375 311.478C313.803 311.165 312.23 310.828 310.667 310.485C301.489 308.46 292.412 306.009 283.466 303.151C271.355 299.295 246.319 287.82 231.595 280.835C225.167 287.976 216.679 293.403 206.727 296.07C197.149 298.636 187.466 298.31 178.606 295.635C169.143 308.511 153.875 329.068 145.087 338.05C138.525 344.769 131.657 351.189 124.499 357.282C123.28 358.317 122.049 359.353 120.808 360.367C120.757 360.405 120.7 360.45 120.649 360.5C120.633 360.505 120.616 360.522 120.599 360.539C101.263 376.462 80.0279 389.999 57.42 400.81C51.8456 403.478 45.1909 402.316 40.8592 397.925C38.7297 395.767 37.3508 393.047 36.8712 390.064C36.3861 387.075 36.8492 384.052 38.1974 381.328C49.3097 358.867 63.1295 337.815 79.3102 318.694C79.3272 318.677 79.3446 318.66 79.3504 318.644C79.401 318.594 79.4461 318.538 79.4856 318.488C80.5154 317.26 81.5682 316.043 82.6202 314.838C88.8079 307.762 95.3195 300.98 102.126 294.509C110.787 286.259 130.87 271.213 144.21 261.507C144.023 260.901 143.848 260.289 143.683 259.671C138.535 240.459 145.005 220.828 158.767 208.267C152.339 193.898 141.218 168.86 137.595 156.232C134.996 147.207 132.808 138.064 131.049 128.83C130.751 127.259 130.459 125.677 130.191 124.097C130.183 124.034 130.172 123.962 130.154 123.893C130.157 123.876 130.151 123.852 130.145 123.83C125.858 99.1507 124.583 74.0007 126.358 49.0043C126.793 42.8395 131.092 37.6287 137.049 36.0324ZM185.92 218.418C170.493 222.551 161.338 238.407 165.473 253.833C169.604 269.251 185.46 278.405 200.886 274.272C216.312 270.138 225.466 254.283 221.335 238.864C217.201 223.438 201.346 214.284 185.92 218.418Z" fill="#0B58F4"/>
		<path d="M319.429 321.275C325.436 322.919 331.485 324.415 337.571 325.758C339.489 326.179 341.419 326.594 343.348 326.978C343.426 326.991 343.512 327.006 343.596 327.031C343.618 327.028 343.645 327.037 343.673 327.045C345.754 327.468 347.838 327.872 349.924 328.261C320.606 383.841 262.247 421.728 195.039 421.728C159.106 421.728 125.704 410.895 97.9165 392.321C100.058 390.634 102.183 388.926 104.288 387.192C104.308 387.172 104.33 387.152 104.35 387.146C104.412 387.084 104.482 387.029 104.544 386.981C106.068 385.738 107.578 384.467 109.075 383.195C113.393 379.519 117.626 375.745 121.77 371.879C143.271 384.493 168.31 391.728 195.039 391.728C247.858 391.728 294.079 363.483 319.429 321.275ZM115.068 91.0283C115.366 92.9099 115.678 94.7896 116.004 96.667C116.012 96.6951 116.019 96.7239 116.015 96.7451C116.038 96.8296 116.051 96.9165 116.062 96.9941C116.39 98.9333 116.75 100.875 117.116 102.804C118.334 109.196 119.718 115.554 121.266 121.869C78.6279 147.116 50.0386 193.584 50.0386 246.728C50.0387 272.891 56.9694 297.436 69.0933 318.627C65.195 322.697 61.3869 326.856 57.6743 331.102C56.3832 332.581 55.0914 334.074 53.8276 335.581C53.7791 335.643 53.7229 335.712 53.6606 335.773C53.6534 335.794 53.6332 335.814 53.6128 335.834C51.8351 337.935 50.081 340.055 48.3501 342.193C30.4458 314.739 20.0387 281.949 20.0386 246.728C20.0386 178.892 58.6364 120.071 115.068 91.0283ZM195.039 71.7275C291.688 71.7275 370.039 150.078 370.039 246.728C370.039 251.206 369.868 255.645 369.538 260.039C367.814 259.32 366.085 258.614 364.35 257.92C364.323 257.912 364.295 257.903 364.279 257.889C364.195 257.864 364.112 257.83 364.041 257.798C362.218 257.059 360.377 256.346 358.543 255.645C352.424 253.312 346.245 251.142 340.016 249.135C340.029 248.334 340.039 247.532 340.039 246.728C340.039 166.646 275.12 101.728 195.039 101.728C194.536 101.728 194.033 101.731 193.532 101.736C191.772 95.7339 189.864 89.7738 187.804 83.8633C187.156 82.0097 186.496 80.1482 185.81 78.3047C185.781 78.2321 185.749 78.1498 185.726 78.0654C185.712 78.0492 185.704 78.0211 185.697 77.9932C184.974 76.0236 184.234 74.0604 183.479 72.1035C187.3 71.8543 191.155 71.7275 195.039 71.7275Z" fill="#0B58F4"/>
	</g>
	<defs>
		<clipPath id="clip0_34_2047">
			<rect width="1252" height="435" fill="white"/>
		</clipPath>
		<clipPath id="clip1_34_2047">
			<rect width="278.662" height="278.662" fill="white" transform="translate(49.5942 112.919) rotate(-2.01151)"/>
		</clipPath>
	</defs>
</svg> 