<svg width="155" height="26" viewBox="0 0 155 26" fill="none" xmlns="http://www.w3.org/2000/svg"><path d="M140.992 4.31946V21.3858H143.829V4.31946H140.992zm-7.22 4.56109C130.542 8.88055 127.957 11.6897 127.957 15.1332c0 3.4434 2.613 6.2526 5.815 6.2526C134.868 21.3858 135.907 21.0535 136.778 20.4796V21.3556H139.615V15.1634C139.587 11.6897 136.974 8.88055 133.772 8.88055zm0 9.48465c-1.65699999999998.0-3.006-1.4499-3.006-3.232.0-1.7822 1.34900000000002-3.2321 3.006-3.2321 1.65700000000001.0 3.006 1.4499 3.006 3.2321.0 1.7821-1.34899999999999 3.232-3.006 3.232zM120.709 8.88055C119.614 8.88055 118.574 9.21282 117.704 9.78673V4.34966h-2.809V15.1634C114.895 18.6371 117.507 21.416 120.709 21.416c3.203.0 5.815-2.8091 5.815-6.2526C126.524 11.7199 123.912 8.88055 120.709 8.88055zm0 9.48465C119.052 18.3652 117.704 16.9153 117.704 15.1332 117.704 13.351 119.052 11.9011 120.709 11.9011c1.658.0 3.006 1.4499 3.006 3.2321.0 1.7821-1.348 3.232-3.006 3.232zM107.647 8.88055C104.416 8.88055 101.832 11.6897 101.832 15.1332 101.832 18.5766 104.444 21.3858 107.647 21.3858c3.22999999999999.0 5.815-2.8092 5.815-6.2526C113.462 11.6897 110.877 8.88055 107.647 8.88055zm0 9.48465c-1.658.0-3.006-1.4499-3.006-3.232.0-1.7822 1.348-3.2321 3.006-3.2321 1.657.0 3.006 1.4499 3.006 3.2321.0 1.7821-1.349 3.232-3.006 3.232zM97.5901 21.416h2.8369V4.31946H97.5901V21.416zM90.3425 8.88055c-3.2306.0-5.815 2.80915-5.815 6.25265.0 3.4736 2.6125 6.2526 5.815 6.2526C91.438 21.3858 92.4493 21.0535 93.3202 20.5098 93.2078 21.8691 92.1403 22.9263 90.8481 22.9263H88.6008v3.0508h2.2473c2.92149999999999.0 5.2812-2.5675 5.2812-5.6787v-5.135C96.1855 11.6897 93.573 8.88055 90.3425 8.88055zm0 9.48465C88.6851 18.3652 87.3367 16.9153 87.3367 15.1332 87.3367 13.351 88.6851 11.9011 90.3425 11.9011S93.3483 13.351 93.3483 15.1332c0 1.7821-1.3484 3.232-3.00579999999999 3.232zM79.4991 13.6229H76.1562 76.1281C75.7068 13.6229 75.3416 13.2302 75.3416 12.7771 75.3416 12.324 75.7068 11.9313 76.1281 11.9313H79.471V8.88055H76.1281c-1.9945.0-3.6238 1.75195-3.6238 3.89655.0 2.1446 1.6293 3.8966 3.6238 3.8966H79.471 79.4991C79.9205 16.6737 80.2857 17.0663 80.2857 17.5194 80.2857 17.9725 79.9205 18.3652 79.4991 18.3652H76.1562 72.5043V21.416h5.5902H79.471c1.9945.0 3.6238-1.7519 3.6238-3.8966C83.1229 15.3748 81.4936 13.6229 79.4991 13.6229zM66.4084 4.31946H63.5712V8.85034H62.1666V11.9011h1.4046v3.8362C63.5712 18.8787 65.959 21.416 68.8524 21.416h2.2473V18.3954H68.8524C67.4759 18.3954 66.3804 17.2174 66.3804 15.7373V11.9011h4.7193V8.88055H66.3804V4.31946H66.4084zM56.3236 8.91076c-3.2306.0-5.815 2.80914-5.815 6.25264.0 3.4435 2.6125 6.2828 5.815 6.2828 3.2305.0 5.8149-2.8091 5.8149-6.2526s-2.5844-6.28284-5.8149-6.28284zm0 9.48464c-1.6574.0-3.0058-1.4499-3.0058-3.232.0-1.7822 1.34840000000001-3.2321 3.0058-3.2321 1.6574.0 3.0058 1.4499 3.0058 3.2321.0 1.7821-1.3484 3.232-3.0058 3.232zM46.2668 21.416H49.104V4.31946H46.2668V21.416zM43.4576 4.31946C42.6711 4.31946 42.0531 5.01419 42.0531 5.82975 42.0531 6.64531 42.6992 7.34005 43.4576 7.34005c.7866.0 1.4046-.69474 1.4046-1.5103C44.8622 5.01419 44.2442 4.31946 43.4576 4.31946zM42.0531 21.416h2.8372V8.88055H42.0531V21.416zM34.8054 8.88055c-3.2305.0-5.8149 2.80915-5.8149 6.25265V25.9771h2.8372V20.54C32.6986 21.1139 33.738 21.4462 34.8335 21.4462c3.2306.0 5.815-2.8091 5.815-6.2526C40.6204 11.6897 38.036 8.88055 34.8054 8.88055zm0 9.48465c-1.6574.0-3.0058-1.4499-3.0058-3.232.0-1.7822 1.3484-3.2321 3.0058-3.2321 1.6574.0 3.0058 1.4499 3.0058 3.2321.0 1.7821-1.3484 3.232-3.0058 3.232z" fill="#05154d"/><path fill-rule="evenodd" clip-rule="evenodd" d="M151.446 7.7037C153.409 7.7037 155 5.97917 155 3.85185 155 1.72453 153.409.0 151.446.0 149.482.0 147.891 1.72453 147.891 3.85185 147.891 5.97917 149.482 7.7037 151.446 7.7037zM151.446 7.01587C153.058 7.01587 154.365 5.5993 154.365 3.85185 154.365 2.10441 153.058.687831 151.446.687831 149.833.687831 148.526 2.10441 148.526 3.85185 148.526 5.5993 149.833 7.01587 151.446 7.01587z" fill="#05154d"/><path d="M6.46106 20.6306c-3.76427.8156 1.60122-1.9634 1.60122-1.9634L2.30351 11.8105 4.85984 10.9647l9.69156 4.7122 9.6073-3.8362V2.89977C24.1587 1.29885 22.9508.0 21.462.0H2.69679C1.20794.0.0 1.29885.0 2.89977V23.1075c0 1.5707 1.20794 2.8696 2.69679 2.8696H21.49c1.4889.0 2.6968-1.2989 2.6968-2.8998V14.7707c-8.0622 2.8091-16.01215 5.4975-17.72574 5.8599z" fill="#006aff"/><path d="M150.379 2.11938H151.529C151.776 2.11938 151.986 2.15969 152.16 2.24029 152.334 2.3209 152.467 2.44019 152.56 2.59818 152.653 2.75455 152.7 2.94801 152.7 3.17854 152.7 3.35426 152.67 3.50902 152.611 3.64282 152.551 3.77663 152.467 3.88947 152.359 3.98136 152.25 4.07164 152.121 4.14177 151.97 4.19174L151.801 4.28122H150.768L150.763 3.8H151.538C151.671 3.8 151.783 3.77421 151.872 3.72262 151.962 3.67103 152.028 3.60091 152.073 3.51224 152.119 3.42196 152.142 3.3204 152.142 3.20755 152.142 3.08503 152.12 2.97864 152.075 2.88836 152.032 2.79647 151.965 2.72634 151.874 2.67798 151.784 2.628 151.668 2.60302 151.529 2.60302H150.939v3.0372H150.379V2.11938zM152.234 5.64022 151.471 4.05874 152.057 4.05633 152.832 5.60878V5.64022H152.234z" fill="#05154d"/></svg>